<svg id="Capa_1" enable-background="new 0 0 507.949 507.949" height="512" viewBox="0 0 507.949 507.949" width="512" xmlns="http://www.w3.org/2000/svg"><g><path d="m375.423 317.561c32.792-20.494 72.041-31.612 113.549-31.612 0 117.084-94.916 212-212 212-43.256 0-83.479-12.961-117.012-35.205-24.401-16.186-57.585-7.052-70.512 19.782-8.532 17.712-32.066 20.328-44.145 5.401-16.467-20.349-27.016-46.269-26.299-77.27 1.701-73.541 79.455-115.762 142.386-83.469 67.439 34.606 149.02 31.004 214.033-9.627z" fill="#fff"/><path d="m159.962 462.739c-24.4-16.18-57.59-7.05-70.51 19.79-8.54 17.71-32.07 20.33-44.15 5.4-16.47-20.35-27.01-46.27-26.3-77.27 1.15-49.69 37.02-85.08 79.58-92.84-10.63 54.62 11.88 112.69 61.38 144.92zm119.26-112.83c-21.29 1.94-42.8.73-63.78-3.64-30.8 42.54-30.52 100.59.85 142.86 19.22 5.74 39.59 8.82 60.68 8.82 23.89 0 46.86-3.95 68.29-11.24-51.53-24.34-78.97-81.61-66.04-136.8zm96.2-32.35c-7.2 4.5-14.6 8.55-22.17 12.13 19.71 39.43 56.79 66.99 99.23 75.2 23.03-33.91 36.49-74.86 36.49-118.94-41.51 0-80.76 11.12-113.55 31.61zm24.36-215.7c12.88-17.24 20.84-36.99 23.83-57.33 3.83-26.08-25.21-44.05-46.88-29.04-15.79 10.94-28.91 25.34-38.35 42.02-47.99-22.11-108.42-22.5-156.82 0-9.44-16.68-22.56-31.08-38.35-42.02-21.67-15.01-50.71 2.96-46.88 29.04 2.99 20.34 10.95 40.09 23.83 57.33-31.37 33.93-50.53 79.3-50.53 129.14 3.46 13.51 15.63 22.95 29.57 22.95h63.45c13.2 0 25.06 5.84 32.68 13.79l23.22 26.54c8.67 9.96 21.22 15.67 34.42 15.67h14c13.2 0 25.75-5.71 34.42-15.67l23.22-26.54c7.62-7.95 19.48-13.79 32.68-13.79h63.45c13.94 0 26.11-9.44 29.57-22.95 0-49.84-19.16-95.21-50.53-129.14z" fill="#8aa8bd"/><path d="m431.932 149.329c-37.76-20.4-78.37-33.6-119.83-39.6-10.55-1.53-20.37 5.71-22.12 16.22l-11.21 67.3c-2.43 14.63 4.38 29.19 17.09 36.83-21.66-13.03-50.15-13.03-71.78 0 12.71-7.64 19.52-22.2 17.09-36.83l-11.21-67.3c-1.75-10.51-11.57-17.75-22.12-16.22-41.46 6-82.07 19.2-119.83 39.6 8.29-17.45 19.17-33.44 32.15-47.47-12.88-17.24-20.84-36.99-23.83-57.33-3.83-26.08 25.21-44.05 46.88-29.04 15.79 10.94 28.91 25.34 38.35 42.02 48.4-22.5 108.83-22.11 156.82 0 9.44-16.68 22.56-31.08 38.35-42.02 21.67-15.01 50.71 2.96 46.88 29.04-2.99 20.34-10.95 40.09-23.83 57.33 12.98 14.03 23.86 30.02 32.15 47.47z" fill="#c5d3de"/><path d="m324.612 267.739-23.22 26.54c-8.67 9.96-21.22 15.67-34.42 15.67 11.05 0 20-8.95 20-20 0-13.25-10.75-24-24-24h-6c-13.25 0-24 10.75-24 24 0 11.05 8.95 20 20 20-13.2 0-25.75-5.71-34.42-15.67l-23.22-26.54c4.45-15.91 14.9-29.33 28.75-37.66 21.63-13.03 50.12-13.03 71.78 0 13.85 8.33 24.3 21.75 28.75 37.66zm-116.77-158.01c-41.46 6-82.07 19.2-119.83 39.6-11.79 24.75-18.38 52.44-18.38 81.67 26.03-44.28 74.43-74.05 129.33-74.05 17.12 0 31-13.88 31-31-1.75-10.51-11.57-17.75-22.12-16.22zm242.47 121.27c-26.03-44.28-74.43-74.05-129.33-74.05-17.12 0-31-13.88-31-31 1.75-10.51 11.57-17.75 22.12-16.22 41.46 6 82.07 19.2 119.83 39.6 11.79 24.75 18.38 52.44 18.38 81.67z" fill="#fff"/><path d="m184.972 196.949c0-5.522 4.477-10 10-10h6c5.523 0 10 4.478 10 10s-4.477 10-10 10h-6c-5.523 0-10-4.478-10-10zm140-10h-6c-5.523 0-10 4.478-10 10s4.477 10 10 10h6c5.523 0 10-4.478 10-10s-4.477-10-10-10zm-265.339 44.051c0-52.646 20.327-97.629 47.735-129.996-10.854-16.557-18.047-35.418-20.93-55.025-2.36-16.053 4.718-31.326 18.472-39.862 13.775-8.549 30.633-8.11 43.995 1.147 14.438 10.003 26.976 22.891 36.651 37.611 46.497-18.841 101.988-18.834 148.821.021 9.677-14.729 22.22-27.625 36.664-37.632 13.361-9.256 30.22-9.696 43.996-1.146 13.753 8.535 20.831 23.81 18.471 39.86-2.882 19.607-10.076 38.468-20.929 55.025 27.407 32.367 47.735 77.349 47.735 129.996 0 10.885-14.194 32.949-39.567 32.949h-63.45c-9.445 0-18.892 3.941-25.317 10.554l-23.047 26.35c-10.221 11.734-24.861 18.653-40.368 19.097h-17.182c-15.507-.443-30.147-7.362-40.368-19.097l-23.047-26.35c-6.425-6.612-15.872-10.554-25.317-10.554h-63.451c-25.373.001-39.567-22.063-39.567-32.948zm217.339 58.949c0-7.72-6.28-14-14-14h-6c-7.72 0-14 6.28-14 14 0 5.514 4.486 10 10 10h14c5.514 0 10-4.486 10-10zm36.353-24.499c-4.317-11.146-12.208-20.54-22.617-26.798-18.391-11.063-43.111-11.057-61.472 0-10.409 6.258-18.299 15.651-22.617 26.798l16.772 19.176c2.563-16.228 16.644-28.677 33.58-28.677h6c16.937 0 31.018 12.449 33.58 28.677zm125.988-33.279c-25.544-40.346-70.465-65.222-118.332-65.222-9.917 0-19.022-3.539-26.121-9.42l-6.221 37.361c-1.763 10.591 3.095 21.04 12.378 26.623 12.155 7.31 21.807 17.757 28.049 30.158 8.491-4.949 18.372-7.723 28.228-7.723h63.45c8.063.001 15.236-4.689 18.569-11.777zm-128.644-112.547c-4.832-.69-9.439 2.466-10.646 7.155.441 11.193 9.658 20.17 20.958 20.17 44.17 0 86.133 18.545 116.026 49.949-2.721-13.969-7.08-27.536-12.937-40.413-35.426-18.683-73.554-31.093-113.401-36.861zm-189.128-33.679c6.35-6.058 12.928-11.488 19.6-16.241 4.498-3.204 10.705-2.335 13.984 2.109s2.335 10.705-2.109 13.984c-15.335 11.316-28.593 24.909-39.472 40.107 29.591-12.67 60.7-21.419 92.866-26.075 15.801-2.286 30.79 8.693 33.417 24.476l11.206 67.299c1.094 6.57.747 13.105-.862 19.248 6.505-.788 13.095-.787 19.601.003-1.61-6.143-1.957-12.679-.863-19.25l11.206-67.299c2.628-15.782 17.62-26.771 33.417-24.476 32.167 4.656 63.276 13.405 92.867 26.075-10.879-15.198-24.137-28.792-39.472-40.107-4.444-3.279-5.388-9.54-2.109-13.984s9.486-5.313 13.984-2.109c6.672 4.753 13.25 10.183 19.6 16.24 7.841-13.116 13.09-27.732 15.316-42.875 1.2-8.166-2.25-15.627-9.23-19.959-7.003-4.346-15.25-4.125-22.06.593-14.446 10.009-26.667 23.402-35.343 38.732-2.562 4.527-8.163 6.336-12.888 4.157-45.986-21.187-102.857-21.192-148.422-.014-4.728 2.197-10.35.394-12.918-4.144-8.675-15.33-20.897-28.724-35.343-38.732-6.81-4.717-15.056-4.939-22.059-.593-6.98 4.332-10.431 11.793-9.23 19.959 2.227 15.144 7.476 29.761 15.316 42.876zm-38.604 110.953c29.894-31.404 71.856-49.949 116.026-49.949 11.3 0 20.518-8.978 20.958-20.171-1.205-4.689-5.801-7.844-10.646-7.154-39.847 5.769-77.975 18.178-113.401 36.861-5.857 12.877-10.215 26.444-12.937 40.413zm-2.305 35.273c3.333 7.088 10.506 11.778 18.568 11.778h63.45c9.856 0 19.737 2.773 28.228 7.723 6.243-12.403 15.894-22.85 28.053-30.16 9.281-5.58 14.138-16.03 12.375-26.621l-6.221-37.361c-7.098 5.881-16.204 9.42-26.121 9.42-47.867-.001-92.788 24.875-118.332 65.221zm418.34 53.778c0 58.958-23.548 111.258-57.1 148.64-3.439 3.832-10.19 4.489-14.13.73-3.991-3.808-4.42-10.03-.73-14.13 2.988-3.312 5.855-6.719 8.605-10.209-36.298-11.022-67.575-35.602-86.722-68.363-19.56 8.311-40.177 13.851-61.285 16.458-7.892 47.057 15.766 94.742 58.318 116.788 4.075-1.482 8.068-3.2 12.114-4.834 4.511-1.822 10.608-.661 13.18 5.14 2.039 4.596.379 10.796-5.15 13.17-13.809 5.927-45.616 18.61-89.08 18.61h-.05c-43.79 0-86.16-12.75-122.51-36.87-6.27-4.16-13.53-6.36-21-6.37-15 .03-28.41 8.52-34.97 22.16-3.08 6.42-13.167 20.78-32.99 20.78-15.081 0-24.44-9.091-27.94-13.431-8.95-11.029-28.556-37.657-28.556-81.842 0-30.653 12.625-58.068 33.675-77.467 9.89-9.12 35.224-28.71 73.61-28.71 23.291 0 41.84 8.06 49.69 12.09 28.71 14.729 61.08 22.51 93.62 22.52 39.11-.01 77.34-10.979 110.55-31.729 34.69-21.67 75.78-33.13 118.85-33.13 5.05-.001 10.001 3.967 10.001 9.999zm-374.478 159.502c-25.763-28.57-41.871-70.217-37.916-114.017-11.208 3.989-21.676 10.148-30.356 18.175-17.22 15.96-27.244 38.969-27.244 62.767 0 27.024 8.134 49.462 24.094 69.262 3.19 3.891 7.51 5.971 12.52 6.011 6.54-.07 11.867-3.562 14.85-9.46 11.786-23.307 31.085-30.66 44.052-32.738zm74.946-92.779c-14.74-4.064-29.042-9.624-42.619-16.583-12.77-6.56-30.688-11.591-49.571-9.392-7.039 50.197 15.299 99.617 58.1 127.622 9.073 5.936 18.552 11.258 28.279 15.671-18.006-39.721-12.433-86.701 5.811-117.318zm67.733 7.997c-12.717.489-31.104-.285-47.138-3.334-23.85 37.338-23.01 86.665 2.384 123.151 29.263 8.205 63.328 10.14 97.692 2.847-41.588-30.792-58.298-76.925-52.938-122.664zm211.539-64.48c-35.5 1.649-69.38 11.97-97.99 29.85-4.488 2.805-9.061 5.445-13.708 7.921 17.822 29.618 47.161 51.317 80.856 59.665 18.361-29.165 29.117-62.792 30.842-97.436zm-77.686 151.69c-5.522 0-9.998 4.476-9.998 9.998s4.476 9.998 9.998 9.998 9.998-4.476 9.998-9.998-4.476-9.998-9.998-9.998z"/></g></svg>